HIERARCHY
ROOT Hips
{
    OFFSET 0.000000 0.000000 0.000000
    CHANNELS 6 Xposition Yposition Zposition Zrotation Xrotation Yrotation
    JOINT Spine
    {
        OFFSET -0.000000 14.517291 0.000000
        CHANNELS 3 Zrotation Xrotation Yrotation
        JOINT Spine1
        {
            OFFSET -0.000000 37.558300 0.000000
            CHANNELS 3 Zrotation Xrotation Yrotation
            JOINT Neck
            {
                OFFSET -0.000000 37.404057 3.400369
                CHANNELS 3 Zrotation Xrotation Yrotation
                JOINT Head
                {
                    OFFSET -0.000000 24.785618 -3.540803
                    CHANNELS 3 Zrotation Xrotation Yrotation
                    End Site
                    {
                        OFFSET -0.000000 35.408028 0.000000
                    }
                }
            }
            JOINT LeftShoulder
            {
                OFFSET 6.992933 33.973492 -0.192664
                CHANNELS 3 Zrotation Xrotation Yrotation
                JOINT LeftArm
                {
                    OFFSET 21.527611 0.000000 0.000000
                    CHANNELS 3 Zrotation Xrotation Yrotation
                    JOINT LeftForeArm
                    {
                        OFFSET 56.353916 0.000000 0.000000
                        CHANNELS 3 Zrotation Xrotation Yrotation
                        JOINT LeftHand
                        {
                            OFFSET 47.774071 0.000000 0.000000
                            CHANNELS 3 Zrotation Xrotation Yrotation
                            End Site
                            {
                                OFFSET 26.556021 0.000000 0.000000
                            }
                        }
                    }
                }
            }
            JOINT RightShoulder
            {
                OFFSET -7.065357 33.973492 -0.192664
                CHANNELS 3 Zrotation Xrotation Yrotation
                JOINT RightArm
                {
                    OFFSET -21.527611 0.000000 0.000000
                    CHANNELS 3 Zrotation Xrotation Yrotation
                    JOINT RightForeArm
                    {
                        OFFSET -56.353916 0.000000 0.000000
                        CHANNELS 3 Zrotation Xrotation Yrotation
                        JOINT RightHand
                        {
                            OFFSET -47.774071 0.000000 0.000000
                            CHANNELS 3 Zrotation Xrotation Yrotation
                            End Site
                            {
                                OFFSET -26.556021 0.000000 0.000000
                            }
                        }
                    }
                }
            }
        }
    }
    JOINT LeftUpLeg
    {
        OFFSET 17.704014 0.000000 0.000000
        CHANNELS 3 Zrotation Xrotation Yrotation
        JOINT LeftLeg
        {
            OFFSET -0.000000 -81.181816 0.000000
            CHANNELS 3 Zrotation Xrotation Yrotation
            JOINT LeftFoot
            {
                OFFSET -0.000000 -62.821102 0.000000
                CHANNELS 3 Zrotation Xrotation Yrotation
                JOINT LeftToeBase
                {
                    OFFSET -0.000000 -11.507608 26.556021
                    CHANNELS 3 Zrotation Xrotation Yrotation
                    End Site
                    {
                        OFFSET -0.000000 0.000000 7.081605
                    }
                }
            }
        }
    }
    JOINT RightUpLeg
    {
        OFFSET -17.704014 0.000000 0.000000
        CHANNELS 3 Zrotation Xrotation Yrotation
        JOINT RightLeg
        {
            OFFSET -0.000000 -81.181816 0.000000
            CHANNELS 3 Zrotation Xrotation Yrotation
            JOINT RightFoot
            {
                OFFSET -0.000000 -62.821102 0.000000
                CHANNELS 3 Zrotation Xrotation Yrotation
                JOINT RightToeBase
                {
                    OFFSET -0.000000 -11.507608 26.556021
                    CHANNELS 3 Zrotation Xrotation Yrotation
                    End Site
                    {
                        OFFSET -0.000000 0.000000 7.081605
                    }
                }
            }
        }
    }
}
MOTION
Frames:    4
Frame Time:    0.008333
9.869478    150.045670    -14.184302    0.123647    6.317606    -14.815561    3.923124    1.531972    12.097541    -4.880054    -1.873053    3.970178    8.873197    -7.506229    -1.243896    0.171775    6.732636    -3.192171    3.500151    1.741645    -7.450360    -42.654053    9.475138    -42.597885    -2.615033    -26.672310    -123.818672    -3.570407    -30.808151    -5.939531    -15.659336    -3.217732    7.402547    31.027681    -23.701431    76.460159    -1.029710    -18.477884    25.672832    13.729480    -12.634495    45.810875    18.487940    -39.761307    2.738899    -22.164232    38.355736    -7.440133    0.767569    -5.434175    34.694096    0.000000    0.000000    0.000000    -11.658554    0.443110    -29.457817    3.163572    36.957062    -7.786181    16.301811    -27.689838    5.152130    0.000000    0.000000    0.000000    
9.730086    150.495270    -14.231810    0.060471    6.298602    -14.603198    3.935462    1.478060    12.115628    -4.853445    -1.825762    3.978098    8.681889    -7.544253    -1.347873    0.413990    6.789126    -3.241696    3.474931    1.720860    -7.473917    -42.672382    9.596100    -42.650078    -2.644789    -26.575239    -123.896698    -3.506000    -30.774529    -5.866163    -15.723467    -3.245195    7.415314    30.993147    -23.772541    76.509529    -0.976590    -18.442593    24.889050    13.669016    -12.644841    45.791527    18.218559    -39.424568    2.422809    -21.604181    37.600052    -7.771472    0.444769    -4.964554    34.666607    0.000000    0.000000    0.000000    -11.228740    0.853401    -29.049061    3.339894    35.858059    -7.724191    15.857246    -27.262758    4.231071    0.000000    0.000000    0.000000    
9.591125    150.937988    -14.280555    0.029288    6.309134    -14.380374    3.947113    1.386896    12.132304    -4.905513    -1.777643    3.983891    8.670873    -7.587224    -1.419788    0.485031    6.861097    -3.311793    3.529346    1.702401    -7.469494    -42.717094    9.730632    -42.758190    -2.676981    -26.474695    -123.962746    -3.499605    -30.737402    -5.819477    -15.743734    -3.302311    7.411198    30.963238    -23.809969    76.537849    -0.910943    -18.410114    24.089128    13.662618    -12.630342    45.823277    17.950050    -39.116600    2.098522    -21.107706    36.807972    -8.071539    0.112518    -4.474688    34.661911    0.000000    0.000000    0.000000    -10.835148    1.253276    -28.653347    3.582889    34.742954    -7.602002    15.318507    -26.890671    3.175487    0.000000    0.000000    0.000000    
9.431875    151.378204    -14.323637    -0.029232    6.310555    -14.162530    3.967670    1.250971    12.207610    -4.920458    -1.647690    4.012856    8.631785    -7.571640    -1.520850    0.568788    6.799145    -3.400078    3.567880    1.666621    -7.546146    -42.717331    9.900018    -42.876389    -2.701738    -26.477016    -123.995087    -3.456085    -30.785921    -5.761628    -15.775555    -3.362549    7.377046    30.911911    -23.880383    76.508163    -0.802795    -18.365751    23.321188    13.617390    -12.626443    45.860973    17.724134    -38.783512    1.833903    -20.537111    36.049644    -8.560415    -0.259425    -4.027638    34.695839    0.000000    0.000000    0.000000    -10.403000    1.654987    -28.321877    3.758611    33.549114    -7.510994    14.816540    -26.383064    2.218378    0.000000    0.000000    0.000000    
